{"title":"Reflections.2008(/II).SWESUB.DVDRip.XviD.AC3.(5.1).-Zen_Bud","uid":5568930,"size":1471200234,"categoryP":"video","categoryS":"movies","magnet":"?xt=urn:btih:3fc8a582bd08d936c582cbfdcaa4d3c1c95f6c46&amp;dn=Reflections.2008%28%2FII%29.SWESUB.DVDRip.XviD.AC3.%285.1%29.-Zen_Bud&amp;tr=udp%3A%2F%2Ftracker.openbittorrent.com%3A80&amp;tr=udp%3A%2F%2Fopen.demonii.com%3A1337&amp;tr=udp%3A%2F%2Ftracker.coppersurfer.tk%3A6969&amp;tr=udp%3A%2F%2Fexodus.desync.com%3A6969","seeders":0,"leechers":0,"uploader":"Zen_Bud","files":-1,"time":1274211631,"description":"General\nComplete name                    : Reflections.avi\nFormat                           : AVI\nFile size                        : 1.37 GiB\nDuration                         : 1h 34mn\nOverall bit rate                 : 2 067 Kbps\n\nVideo\nID                               : 0\nFormat                           : MPEG-4 Visual\nCodec ID/Hint                    : XviD\nDuration                         : 1h 34mn\nBit rate                         : 1 608 Kbps\nWidth                            : 720 pixels\nHeight                           : 576 pixels\nDisplay aspect ratio             : 16:9\nResolution                       : 8 bits\nColorimetry                      : 4:2:0\nScan type                        : Progressive\nBits/(Pixel*Frame)               : 0.155\nStream size                      : 1.07 GiB (78%)\nWriting library                  : XviD 1.1.2 (UTC 2006-11-01)\n\nAudio\nID                               : 1\nFormat                           : AC-3\nDuration                         : 1h 34mn\nBit rate                         : 448 Kbps\nChannel(s)                       : 6 channels\nChannel positions                : Front: L C R, Side: L R, LFE\nSampling rate                    : 48.0 KHz\nStream size                      : 304 MiB (22%)\n\n\n","torrent":{"xt":"urn:btih:3fc8a582bd08d936c582cbfdcaa4d3c1c95f6c46","amp;dn":"Reflections.2008%28%2FII%29.SWESUB.DVDRip.XviD.AC3.%285.1%29.-Zen_Bud","amp;tr":["udp%3A%2F%2Ftracker.openbittorrent.com%3A80","udp%3A%2F%2Fopen.demonii.com%3A1337","udp%3A%2F%2Ftracker.coppersurfer.tk%3A6969","udp%3A%2F%2Fexodus.desync.com%3A6969"],"infoHash":"3fc8a582bd08d936c582cbfdcaa4d3c1c95f6c46","infoHashBuffer":{"type":"Buffer","data":[63,200,165,130,189,8,217,54,197,130,203,253,202,164,211,193,201,95,108,70]},"announce":[],"urlList":[]}}